<svg xmlns="http://www.w3.org/2000/svg" width="683" height="683" viewBox="0 0 683 683" fill="none"><g clip-path="url(#clip0_714_2541)"><path d="M141.334 669.333H541.334" stroke="#00ff24" stroke-width="26.6667" stroke-miterlimit="10" stroke-linecap="round" stroke-linejoin="round"></path><path d="M341.333 360C282.519 360 234.666 312.147 234.666 253.333C234.666 194.52 282.519 146.667 341.333 146.667C400.146 146.667 447.999 194.52 447.999 253.333C447.999 312.147 400.146 360 341.333 360Z" stroke="#00ff24" stroke-width="26.6667" stroke-miterlimit="10" stroke-linecap="round" stroke-linejoin="round"></path><path d="M474.667 501.333C474.667 508.697 468.696 514.667 461.333 514.667C453.971 514.667 448 508.697 448 501.333C448 493.969 453.971 488 461.333 488C468.696 488 474.667 493.969 474.667 501.333Z" fill="#00ff24"></path><path d="M425.817 549.665L341.334 669.333L149.214 397.199C119.147 357.107 101.334 307.306 101.334 253.333C101.334 120.786 208.787 13.3325 341.334 13.3325C473.881 13.3325 581.334 120.786 581.334 253.333C581.334 307.306 563.519 357.107 533.454 397.199L494.989 451.685" stroke="#00ff24" stroke-width="26.6667" stroke-miterlimit="10" stroke-linecap="round" stroke-linejoin="round"></path></g><defs><clipPath id="clip0_714_2541"><rect width="682.667" height="682.667" fill="white"></rect></clipPath></defs></svg>